<!-- Generated by IcoMoon.io -->
<svg version="1.1" xmlns="http://www.w3.org/2000/svg" width="32" height="32" viewBox="0 0 32 32">
<title>cabin</title>
<path d="M31.988 15.302c-0.060-0.567-0.338-1.076-0.799-1.447l-2.922-2.163v-5.292h-4.267v2.135l-7.968-5.896-15.199 10.695c-0.452 0.347-0.741 0.85-0.815 1.415s0.077 1.125 0.425 1.577c0.718 0.932 2.059 1.107 2.97 0.406l0.321-0.222v1.278c-0.628 0.301-1.067 0.938-1.067 1.679s0.438 1.379 1.067 1.679v1.974c-0.628 0.301-1.067 0.938-1.067 1.679s0.438 1.379 1.067 1.679v1.974c-0.628 0.301-1.067 0.938-1.067 1.679 0 1.029 0.837 1.867 1.867 1.867h22.933c1.029 0 1.867-0.837 1.867-1.867 0-0.938-0.698-1.709-1.6-1.839v-1.654c0.902-0.131 1.6-0.902 1.6-1.839s-0.698-1.709-1.6-1.839v-1.654c0.902-0.131 1.6-0.902 1.6-1.839s-0.698-1.709-1.6-1.839v-1.017l0.804 0.586c0.391 0.313 0.86 0.464 1.327 0.464 0.623 0 1.241-0.271 1.662-0.792 0.358-0.443 0.522-0.999 0.461-1.566zM25.067 7.467h2.133v3.436l-2.133-1.579v-1.857zM12.267 26.667v1.6h-7.467v-1.6h7.467zM4.8 22.933v-1.6h7.467v1.6h-7.467zM4.534 24h7.733v1.6h-7.733c-0.441 0-0.8-0.359-0.8-0.8s0.359-0.8 0.8-0.8zM12.267 30.933h-7.733c-0.441 0-0.8-0.359-0.8-0.8s0.359-0.8 0.8-0.8h7.733v1.6zM18.667 30.933h-5.333v-9.6h5.333v9.6zM19.734 22.933v-1.6h6.933v1.6h-6.933zM19.734 28.267v-1.6h6.933v1.6h-6.933zM28.267 30.133c0 0.441-0.359 0.8-0.8 0.8h-7.733v-1.6h7.733c0.441 0 0.8 0.359 0.8 0.8zM28.267 24.8c0 0.441-0.359 0.8-0.8 0.8h-7.733v-1.6h7.733c0.441 0 0.8 0.359 0.8 0.8zM28.267 19.467c0 0.441-0.359 0.8-0.8 0.8h-22.933c-0.441 0-0.8-0.359-0.8-0.8s0.359-0.8 0.8-0.8h22.933c0.441 0 0.8 0.359 0.8 0.8zM18.134 17.6h-1.6v-1.6h1.6v1.6zM18.134 14.934h-1.6v-1.6h1.6v1.6zM15.467 14.934h-1.6v-1.6h1.6v1.6zM13.867 16h1.6v1.6h-1.6v-1.6zM21.334 16h5.333v1.6h-7.467v-5.333h-6.4v5.333h-8v-1.6h5.867c0.295 0 0.533-0.238 0.533-0.533s-0.238-0.533-0.533-0.533h-4.661l2.308-1.6h2.887v-1.067h-1.348l2.308-1.6h7.429l2.193 1.6h-0.981v1.067h2.443l2.193 1.6h-4.102c-0.295 0-0.533 0.238-0.533 0.533s0.238 0.533 0.533 0.533zM13.698 9.6l2.271-1.574 2.158 1.574h-4.429zM30.696 16.199c-0.369 0.457-1.043 0.53-1.5 0.159l-13.212-9.641-13.2 9.153c-0.467 0.358-1.138 0.271-1.496-0.195-0.174-0.226-0.249-0.506-0.212-0.789s0.182-0.534 0.389-0.694l14.552-10.238 14.521 10.745c0.221 0.179 0.361 0.434 0.39 0.717 0.030 0.283-0.052 0.561-0.231 0.783zM14.934 26.133c0 0.295-0.239 0.533-0.533 0.533s-0.533-0.239-0.533-0.533c0-0.295 0.239-0.533 0.533-0.533s0.533 0.239 0.533 0.533zM25.067 5.867c0.139 0 0.277-0.059 0.379-0.155 0.096-0.101 0.155-0.24 0.155-0.379s-0.059-0.278-0.155-0.379c-0.197-0.197-0.56-0.197-0.757 0-0.097 0.101-0.155 0.24-0.155 0.379s0.058 0.277 0.155 0.379c0.101 0.095 0.24 0.155 0.379 0.155zM27.2 5.867c0.295 0 0.533-0.238 0.533-0.533v-2.133c0-0.295-0.238-0.533-0.533-0.533s-0.533 0.238-0.533 0.533v2.133c0 0.294 0.238 0.533 0.533 0.533zM27.2 2.134c0.295 0 0.533-0.238 0.533-0.533v-1.067c0-0.295-0.238-0.533-0.533-0.533s-0.533 0.238-0.533 0.533v1.067c0 0.294 0.238 0.533 0.533 0.533zM25.067 4.267c0.295 0 0.533-0.238 0.533-0.533v-1.067c0-0.295-0.238-0.533-0.533-0.533s-0.533 0.238-0.533 0.533v1.067c0 0.294 0.238 0.533 0.533 0.533zM25.067 1.601c0.295 0 0.533-0.238 0.533-0.533v-0.533c0-0.295-0.238-0.533-0.533-0.533s-0.533 0.238-0.533 0.533v0.533c0 0.294 0.238 0.533 0.533 0.533z"></path>
</svg>
